<svg width="15" height="16" viewBox="0 0 15 16" fill="none" xmlns="http://www.w3.org/2000/svg">
<path fill-rule="evenodd" clip-rule="evenodd" d="M1.28546 8C1.28546 4.56795 4.06712 1.78571 7.49846 1.78571C10.9299 1.78571 13.7115 4.56795 13.7115 8C13.7115 8.02889 13.7135 8.05726 13.7172 8.08511C13.7143 8.11203 13.7133 8.13937 13.7139 8.16706C13.7192 8.38529 13.6913 8.72377 13.6196 9.04734C13.5416 9.3998 13.4398 9.60234 13.3804 9.66483C13.1216 9.93637 12.7657 10.0939 12.3908 10.103C12.0159 10.112 11.6527 9.97169 11.3812 9.71291C11.2037 9.54371 11.1528 9.2954 11.139 8.71837L11.04 4.60573C11.0315 4.25079 10.7369 3.96998 10.382 3.97853C10.0271 3.98707 9.74638 4.28172 9.75495 4.63667L9.76918 5.23036C9.15122 4.7229 8.3604 4.4183 7.49846 4.4183C5.5208 4.4183 3.91757 6.02185 3.91757 7.99991C3.91757 9.97803 5.5208 11.5816 7.49846 11.5816C8.59059 11.5816 9.56856 11.0926 10.2253 10.3215C10.299 10.4336 10.3877 10.5419 10.4944 10.6437C11.0127 11.1377 11.706 11.4055 12.4217 11.3883C13.1374 11.3711 13.817 11.0702 14.311 10.5518C14.6278 10.2193 14.7881 9.71617 14.8747 9.3254C14.9676 8.90566 15.0069 8.46337 14.999 8.13611C14.9984 8.11254 14.9966 8.08931 14.9936 8.06643C14.9958 8.04457 14.997 8.02246 14.997 8C14.997 3.85787 11.6398 0.5 7.49846 0.5C3.35719 0.5 0 3.85787 0 8C0 12.1421 3.35719 15.5 7.49846 15.5C9.24934 15.5 10.8616 14.8991 12.1378 13.8926C12.4165 13.6727 12.4644 13.2685 12.2445 12.9897C12.0248 12.7109 11.6207 12.6631 11.3419 12.883C10.2843 13.717 8.95034 14.2143 7.49846 14.2143C4.06712 14.2143 1.28546 11.4321 1.28546 8ZM7.49846 5.70401C6.23075 5.70401 5.20302 6.73194 5.20302 7.99991C5.20302 9.26797 6.23075 10.2959 7.49846 10.2959C8.76627 10.2959 9.79395 9.26797 9.79395 7.99991C9.79395 6.73194 8.76627 5.70401 7.49846 5.70401Z" fill="black"/>
</svg>
