<svg width="24" height="21" viewBox="0 0 24 21" fill="none" xmlns="http://www.w3.org/2000/svg">
<path fill-rule="evenodd" clip-rule="evenodd" d="M7.21289 10.902C7.21289 8.3214 9.34712 6.22949 11.9798 6.22949C14.6126 6.22949 16.7468 8.3214 16.7468 10.902C16.7468 13.4826 14.6126 15.5745 11.9798 15.5745C9.34712 15.5745 7.21289 13.4826 7.21289 10.902ZM11.9798 8.0985C10.4003 8.0985 9.11966 9.35372 9.11966 10.902C9.11966 12.4503 10.4003 13.7055 11.9798 13.7055C13.5594 13.7055 14.84 12.4503 14.84 10.902C14.84 9.35372 13.5594 8.0985 11.9798 8.0985Z" fill="white"/>
<path fill-rule="evenodd" clip-rule="evenodd" d="M10.2203 1.869C8.89169 1.869 7.81464 2.92472 7.81464 4.227C7.81464 5.05679 7.16479 5.7476 6.32101 5.81477L3.48679 6.04039C2.93029 6.08469 2.47264 6.48804 2.36877 7.02576C1.79833 9.97873 1.7558 13.0065 2.24307 15.9739L2.36669 16.7267C2.48343 17.4377 3.08043 17.9786 3.8127 18.0369L6.28175 18.2334C10.0739 18.5353 13.8849 18.5353 17.6771 18.2334L20.1462 18.0369C20.8785 17.9786 21.4754 17.4377 21.5923 16.7267L21.7158 15.9739C22.2031 13.0065 22.1606 9.97873 21.5901 7.02576C21.4862 6.48804 21.0286 6.08469 20.4721 6.04039L17.6379 5.81477C16.794 5.74761 16.1442 5.05679 16.1442 4.227C16.1442 2.92472 15.0671 1.869 13.7386 1.869H10.2203ZM5.9156 3.97188C6.05017 1.75616 7.926 0 10.2203 0H13.7386C16.0329 0 17.9088 1.75616 18.0432 3.97188L20.6264 4.17752C22.0387 4.28993 23.2 5.31353 23.4636 6.67805C24.0751 9.84379 24.1208 13.0897 23.5984 16.2708L23.4747 17.0236C23.2185 18.5844 21.908 19.7718 20.3005 19.8998L17.8315 20.0963C13.9366 20.4063 10.0223 20.4063 6.12741 20.0963L3.65835 19.8998C2.05091 19.7718 0.740426 18.5844 0.484143 17.0236L0.360521 16.2708C-0.161846 13.0897 -0.116249 9.84379 0.495279 6.67805C0.758871 5.31353 1.92026 4.28993 3.33244 4.17752L5.9156 3.97188Z" fill="white"/>
</svg>
