<svg width="15" height="20" viewBox="0 0 15 20" fill="none" xmlns="http://www.w3.org/2000/svg">
<path d="M5.99609 13.9864C5.99609 13.1723 6.66933 12.5122 7.49975 12.5122C8.33017 12.5122 9.0034 13.1723 9.0034 13.9864C9.0034 14.8006 8.33017 15.4606 7.49975 15.4606C6.66933 15.4606 5.99609 14.8006 5.99609 13.9864Z" fill="black"/>
<path fill-rule="evenodd" clip-rule="evenodd" d="M3.11096 8.67679L2.79475 5.88668C2.75422 5.52896 2.75422 5.16794 2.79475 4.81021L2.81758 4.60884C3.05965 2.47283 4.77242 0.782752 6.94954 0.531636C7.31523 0.489455 7.68473 0.489455 8.05041 0.531636C10.2275 0.782752 11.9403 2.47284 12.1824 4.60885L12.2051 4.81021C12.2457 5.16794 12.2457 5.52896 12.2051 5.88667L11.8889 8.67679L12.5772 8.73065C13.6625 8.81566 14.5488 9.61557 14.7248 10.669C15.0917 12.8662 15.0917 15.1073 14.7248 17.3045C14.5488 18.358 13.6625 19.1579 12.5772 19.2428L11.0775 19.3602C8.69628 19.5466 6.30377 19.5466 3.92256 19.3602L2.42279 19.2428C1.33742 19.1579 0.451169 18.358 0.275221 17.3045C-0.0917404 15.1073 -0.0917404 12.8662 0.275221 10.669C0.451169 9.61557 1.33742 8.81566 2.42279 8.73065L3.11096 8.67679ZM7.12517 1.99575C7.37417 1.96703 7.62578 1.96703 7.87469 1.99575C9.35699 2.1667 10.523 3.31738 10.6879 4.77164L10.7107 4.97302C10.7389 5.22253 10.7389 5.47435 10.7107 5.72388L10.3888 8.56466C8.46492 8.44318 6.53503 8.44318 4.61116 8.56466L4.28921 5.72388C4.26094 5.47435 4.26094 5.22253 4.28921 4.97302L4.31203 4.77164C4.47685 3.31738 5.64296 2.1667 7.12517 1.99575ZM10.9578 10.0828C8.65629 9.90274 6.34377 9.90274 4.04222 10.0828L2.54245 10.2002C2.14656 10.2312 1.82329 10.523 1.75912 10.9073C1.4185 12.9467 1.4185 15.0269 1.75912 17.0663C1.82329 17.4506 2.14656 17.7424 2.54245 17.7733L4.04222 17.8907C6.34377 18.0708 8.65629 18.0708 10.9578 17.8907L12.4575 17.7733C12.8535 17.7424 13.1767 17.4506 13.2409 17.0663C13.5816 15.0269 13.5816 12.9467 13.2409 10.9073C13.1767 10.523 12.8535 10.2312 12.4575 10.2002L10.9578 10.0828Z" fill="black"/>
</svg>
