<svg width="15" height="16" viewBox="0 0 15 16" fill="none" xmlns="http://www.w3.org/2000/svg">
<path fill-rule="evenodd" clip-rule="evenodd" d="M3.38721 4.25463C3.38721 2.181 5.22862 0.5 7.50011 0.5C9.77159 0.5 11.613 2.181 11.613 4.25463C11.613 6.32825 9.77159 8.00925 7.50011 8.00925C5.22862 8.00925 3.38721 6.32825 3.38721 4.25463ZM7.50011 1.82516C6.0303 1.82516 4.83882 2.91287 4.83882 4.25463C4.83882 5.59638 6.0303 6.68409 7.50011 6.68409C8.96992 6.68409 10.1614 5.59638 10.1614 4.25463C10.1614 2.91287 8.96992 1.82516 7.50011 1.82516Z" fill="black"/>
<path fill-rule="evenodd" clip-rule="evenodd" d="M3.62903 10.6596C2.42648 10.6596 1.45161 11.5496 1.45161 12.6474V13.6972C1.45161 13.7132 1.4643 13.7268 1.48158 13.7293C5.46747 14.3234 9.53255 14.3234 13.5184 13.7293C13.5357 13.7268 13.5484 13.7132 13.5484 13.6972V12.6474C13.5484 11.5496 12.5735 10.6596 11.371 10.6596H11.0411C11.0156 10.6596 10.9903 10.6633 10.966 10.6705L10.1284 10.9203C8.42052 11.4293 6.57948 11.4293 4.87159 10.9203L4.034 10.6705C4.00976 10.6633 3.98441 10.6596 3.95891 10.6596H3.62903ZM0 12.6474C0 10.8177 1.62477 9.33447 3.62903 9.33447H3.95891C4.13744 9.33447 4.31486 9.36027 4.48458 9.4108L5.32218 9.66055C6.73732 10.0823 8.26268 10.0823 9.67781 9.66055L10.5154 9.4108C10.6851 9.36027 10.8625 9.33447 11.0411 9.33447H11.371C13.3753 9.33447 15 10.8177 15 12.6474V13.6972C15 14.3626 14.4717 14.9299 13.7523 15.0372C9.61152 15.6543 5.38848 15.6543 1.24768 15.0372C0.528271 14.9299 0 14.3626 0 13.6972V12.6474Z" fill="black"/>
</svg>
