<svg width="15" height="16" viewBox="0 0 15 16" fill="none" xmlns="http://www.w3.org/2000/svg">
<path fill-rule="evenodd" clip-rule="evenodd" d="M1.93204 6.32818C3.46271 9.6631 6.1865 12.3145 9.57246 13.7512L9.58317 13.7557L10.2373 14.0474C11.0703 14.4188 12.0494 14.155 12.5834 13.4155L13.6748 11.9041C13.7414 11.8119 13.7242 11.6835 13.6357 11.6119L11.7304 10.074C11.6357 9.99755 11.4964 10.0154 11.4239 10.1131L10.6824 11.1143C10.5023 11.3575 10.1771 11.442 9.90158 11.3173C7.36971 10.1707 5.33512 8.13499 4.18931 5.60167C4.0646 5.32594 4.14904 5.00054 4.39205 4.82035L5.39265 4.07839C5.49043 4.00589 5.50823 3.86654 5.43181 3.77177L3.89453 1.86513C3.82308 1.77651 3.69484 1.75931 3.60258 1.82595L2.08392 2.92292C1.33989 3.46035 1.07787 4.44822 1.45765 5.28408L1.93153 6.32707C1.93171 6.32744 1.93188 6.32781 1.93204 6.32818ZM9.06556 14.9323C5.38646 13.3696 2.42727 10.4879 0.764103 6.86336L0.763101 6.86121L0.288225 5.81604C-0.344742 4.42293 0.0919546 2.77648 1.33202 1.88076L2.85067 0.783788C3.4965 0.317284 4.39421 0.437773 4.89434 1.05807L6.43161 2.96472C6.96652 3.6281 6.84191 4.60359 6.15747 5.11108L5.58411 5.53623C6.5527 7.41657 8.08763 8.95247 9.96692 9.92154L10.3919 9.34785C10.899 8.6631 11.874 8.53842 12.537 9.07364L14.4422 10.6115C15.0624 11.1121 15.1827 12.0107 14.716 12.6569L13.6246 14.1682C12.7346 15.4009 11.1028 15.8405 9.71454 15.2215L9.06556 14.9323Z" fill="#261C12"/>
</svg>
